<?xml version="1.0" encoding="UTF-8"?>
<svg version="1.1" viewBox="0 0 290 320" xmlns="http://www.w3.org/2000/svg">
<path d="m24.356 2.8754c35.167 29.992 127.91 98.376 245.7 101.64 2.409 0.072 4.694 1.081 6.371 2.812 1.677 1.73 2.613 4.047 2.61 6.457v186.63c1e-3 2.381-0.913 4.671-2.554 6.396s-3.883 2.753-6.261 2.871c-35.414 1.762-169.71 1.557-258.69-93.712-1.587-1.711-2.465-3.961-2.458-6.294v-199.74c-1e-3 -1.771 0.505-3.506 1.459-4.999 0.954-1.492 2.315-2.681 3.923-3.424 1.607-0.744 3.395-1.012 5.15-0.771 1.755 0.24 3.404 0.977 4.753 2.126z" fill="#008000" opacity=".7"/>
<path d="m37.696 57.873s27.751 26.965 65.682 43.715" fill="#008000" stroke="#fff" stroke-linecap="round" stroke-miterlimit="10" stroke-width="7.4328"/>
<path d="m37.696 90.564s38.621 36.024 88.863 49.401" fill="#008000" opacity=".4" stroke="#fff" stroke-linecap="round" stroke-miterlimit="10" stroke-width="7.4328"/>
<path d="m31.943 210.1v-77.955l27.331 19.558v79.839z" fill="#008000"/>
<path d="m78.074 241.6v-55.543l27.331 16.345v54.907z" fill="#008000"/>
<path d="m194.94 285.08v-55.543l-27.331-3.741v54.907z" fill="#008000"/>
<path d="m239.83 287.46v-97.246h-27.331v96.611z" fill="#008000"/>
<path d="m122.84 265.94v-25.394l27.331 7.686v27.606z" fill="#008000"/>
</svg>
