<svg xmlns="http://www.w3.org/2000/svg" xmlns:xlink="http://www.w3.org/1999/xlink" viewBox="0 0 301.5 285.21"><defs><style>.cls-1{mask:url(#mask);}.cls-2{mix-blend-mode:multiply;fill:url(#Áåçûìÿííûé_ãðàäèåíò_30);}.cls-3{fill:none;}.cls-4{isolation:isolate;}.cls-5,.cls-84,.cls-85{fill:#8686f2;}.cls-5,.cls-83{mix-blend-mode:lighten;}.cls-6{fill:url(#Áåçûìÿííûé_ãðàäèåíò_2);}.cls-7{fill:url(#Áåçûìÿííûé_ãðàäèåíò_3);}.cls-40,.cls-8{fill:#fff;}.cls-10,.cls-11,.cls-12,.cls-13,.cls-14,.cls-15,.cls-18,.cls-19,.cls-20,.cls-21,.cls-22,.cls-23,.cls-27,.cls-28,.cls-29,.cls-30,.cls-31,.cls-32,.cls-8{opacity:0.5;}.cls-9{fill:#0f054c;}.cls-10{fill:url(#Áåçûìÿííûé_ãðàäèåíò_254);}.cls-11{fill:url(#Áåçûìÿííûé_ãðàäèåíò_254-2);}.cls-12{fill:url(#Áåçûìÿííûé_ãðàäèåíò_254-3);}.cls-13{fill:url(#Áåçûìÿííûé_ãðàäèåíò_254-4);}.cls-14{fill:url(#Áåçûìÿííûé_ãðàäèåíò_254-5);}.cls-15{fill:url(#Áåçûìÿííûé_ãðàäèåíò_254-6);}.cls-16{fill:url(#Áåçûìÿííûé_ãðàäèåíò_2-2);}.cls-17{fill:url(#Áåçûìÿííûé_ãðàäèåíò_3-2);}.cls-18{fill:url(#Áåçûìÿííûé_ãðàäèåíò_254-7);}.cls-19{fill:url(#Áåçûìÿííûé_ãðàäèåíò_254-8);}.cls-20{fill:url(#Áåçûìÿííûé_ãðàäèåíò_254-9);}.cls-21{fill:url(#Áåçûìÿííûé_ãðàäèåíò_254-10);}.cls-22{fill:url(#Áåçûìÿííûé_ãðàäèåíò_254-11);}.cls-23{fill:url(#Áåçûìÿííûé_ãðàäèåíò_254-12);}.cls-24,.cls-70{fill:#42e8e0;}.cls-24{opacity:0.8;}.cls-25{fill:url(#Áåçûìÿííûé_ãðàäèåíò_2-3);}.cls-26{fill:url(#Áåçûìÿííûé_ãðàäèåíò_3-3);}.cls-27{fill:url(#Áåçûìÿííûé_ãðàäèåíò_254-13);}.cls-28{fill:url(#Áåçûìÿííûé_ãðàäèåíò_254-14);}.cls-29{fill:url(#Áåçûìÿííûé_ãðàäèåíò_254-15);}.cls-30{fill:url(#Áåçûìÿííûé_ãðàäèåíò_254-16);}.cls-31{fill:url(#Áåçûìÿííûé_ãðàäèåíò_254-17);}.cls-32{fill:url(#Áåçûìÿííûé_ãðàäèåíò_254-18);}.cls-33{fill:#24126a;}.cls-34{fill:url(#Áåçûìÿííûé_ãðàäèåíò_3-4);}.cls-35{fill:#393091;}.cls-36{fill:#cad0f9;}.cls-37{opacity:0.51;}.cls-38{fill:#453c9e;}.cls-39{fill:#bcbeff;}.cls-41{mask:url(#mask-2);}.cls-42{opacity:0.78;fill:url(#Áåçûìÿííûé_ãðàäèåíò_14);}.cls-43{fill:url(#Áåçûìÿííûé_ãðàäèåíò_24);}.cls-44{fill:url(#Áåçûìÿííûé_ãðàäèåíò_3-5);}.cls-45{fill:url(#Áåçûìÿííûé_ãðàäèåíò_3-6);}.cls-46{fill:#3f21d3;}.cls-47{fill:url(#Áåçûìÿííûé_ãðàäèåíò_24-2);}.cls-48{fill:url(#Áåçûìÿííûé_ãðàäèåíò_24-3);}.cls-49{fill:url(#Áåçûìÿííûé_ãðàäèåíò_24-4);}.cls-50{fill:url(#Áåçûìÿííûé_ãðàäèåíò_24-5);}.cls-51{fill:url(#Áåçûìÿííûé_ãðàäèåíò_24-6);}.cls-52{fill:url(#Áåçûìÿííûé_ãðàäèåíò_24-7);}.cls-53{fill:url(#Áåçûìÿííûé_ãðàäèåíò_24-8);}.cls-54{fill:url(#Áåçûìÿííûé_ãðàäèåíò_24-9);}.cls-55{fill:url(#Áåçûìÿííûé_ãðàäèåíò_24-10);}.cls-56{fill:url(#Áåçûìÿííûé_ãðàäèåíò_24-11);}.cls-57{fill:url(#Áåçûìÿííûé_ãðàäèåíò_24-12);}.cls-58{fill:url(#Áåçûìÿííûé_ãðàäèåíò_24-13);}.cls-59{fill:url(#Áåçûìÿííûé_ãðàäèåíò_24-14);}.cls-60{fill:url(#Áåçûìÿííûé_ãðàäèåíò_24-15);}.cls-61{fill:url(#Áåçûìÿííûé_ãðàäèåíò_3-7);}.cls-62{fill:#2842a2;}.cls-63{fill:#adb1f2;}.cls-64{fill:#9198db;}.cls-65{fill:url(#Áåçûìÿííûé_ãðàäèåíò_3-8);}.cls-66{opacity:0.11;}.cls-67{clip-path:url(#clip-path);}.cls-68{fill:url(#Áåçûìÿííûé_ãðàäèåíò_3-9);}.cls-69{fill:url(#Áåçûìÿííûé_ãðàäèåíò_3-10);}.cls-71{fill:url(#Áåçûìÿííûé_ãðàäèåíò_3-11);}.cls-72{fill:url(#Áåçûìÿííûé_ãðàäèåíò_24-16);}.cls-73{fill:url(#Áåçûìÿííûé_ãðàäèåíò_3-12);}.cls-74{fill:url(#Áåçûìÿííûé_ãðàäèåíò_24-17);}.cls-75{fill:url(#Áåçûìÿííûé_ãðàäèåíò_3-13);}.cls-76{fill:url(#Áåçûìÿííûé_ãðàäèåíò_24-18);}.cls-77{fill:url(#Áåçûìÿííûé_ãðàäèåíò_3-14);}.cls-78{fill:url(#Áåçûìÿííûé_ãðàäèåíò_24-19);}.cls-79{fill:url(#Áåçûìÿííûé_ãðàäèåíò_3-15);}.cls-80{fill:url(#Áåçûìÿííûé_ãðàäèåíò_24-20);}.cls-81{fill:url(#Áåçûìÿííûé_ãðàäèåíò_3-16);}.cls-82{fill:url(#Áåçûìÿííûé_ãðàäèåíò_24-21);}.cls-85{opacity:0.3;}.cls-86{filter:url(#luminosity-noclip-2);}.cls-87{filter:url(#luminosity-noclip);}</style><filter id="luminosity-noclip" x="127.03" y="-8373" width="89.49" height="32766" filterUnits="userSpaceOnUse" color-interpolation-filters="sRGB"><feFlood flood-color="#fff" result="bg"/><feBlend in="SourceGraphic" in2="bg"/></filter><mask id="mask" x="127.03" y="-8373" width="89.49" height="32766" maskUnits="userSpaceOnUse"><g class="cls-87"/></mask><linearGradient id="Áåçûìÿííûé_ãðàäèåíò_30" x1="140.94" y1="37.92" x2="230.43" y2="37.92" gradientUnits="userSpaceOnUse"><stop offset="0"/><stop offset="0.05" stop-color="#2f2f2f"/><stop offset="0.1" stop-color="#5a5a5a"/><stop offset="0.15" stop-color="#828282"/><stop offset="0.22" stop-color="#a4a4a4"/><stop offset="0.28" stop-color="silver"/><stop offset="0.36" stop-color="#d7d7d7"/><stop offset="0.44" stop-color="#e9e9e9"/><stop offset="0.54" stop-color="#f6f6f6"/><stop offset="0.68" stop-color="#fdfdfd"/><stop offset="1" stop-color="#fff"/></linearGradient><linearGradient id="Áåçûìÿííûé_ãðàäèåíò_2" x1="3.8" y1="198.97" x2="69.96" y2="198.97" gradientUnits="userSpaceOnUse"><stop offset="0.25" stop-color="#5761d7"/><stop offset="0.44" stop-color="#6c74df"/><stop offset="0.82" stop-color="#a2a6f5"/><stop offset="1" stop-color="#bcbeff"/></linearGradient><linearGradient id="Áåçûìÿííûé_ãðàäèåíò_3" x1="3.8" y1="183.97" x2="96.65" y2="183.97" gradientUnits="userSpaceOnUse"><stop offset="0" stop-color="#c0bff6"/><stop offset="0.29" stop-color="#c5c4f7"/><stop offset="0.64" stop-color="#d3d2f9"/><stop offset="1" stop-color="#e9e9fd"/></linearGradient><linearGradient id="Áåçûìÿííûé_ãðàäèåíò_254" x1="21.53" y1="183.97" x2="78.92" y2="183.97" gradientUnits="userSpaceOnUse"><stop offset="0" stop-color="#42e8e0"/><stop offset="0.15" stop-color="#43e3e0"/><stop offset="0.33" stop-color="#45d5df"/><stop offset="0.52" stop-color="#49bddd"/><stop offset="0.72" stop-color="#4e9cdb"/><stop offset="0.93" stop-color="#5472d8"/><stop offset="1" stop-color="#5761d7"/></linearGradient><linearGradient id="Áåçûìÿííûé_ãðàäèåíò_254-2" x1="50.23" y1="167.5" x2="78.92" y2="167.5" xlink:href="#Áåçûìÿííûé_ãðàäèåíò_254"/><linearGradient id="Áåçûìÿííûé_ãðàäèåíò_254-3" x1="21.53" y1="167.5" x2="50.23" y2="167.5" xlink:href="#Áåçûìÿííûé_ãðàäèåíò_254"/><linearGradient id="Áåçûìÿííûé_ãðàäèåíò_254-4" x1="21.53" y1="164.76" x2="78.92" y2="164.76" xlink:href="#Áåçûìÿííûé_ãðàäèåíò_254"/><linearGradient id="Áåçûìÿííûé_ãðàäèåíò_254-5" x1="50.23" y1="181.23" x2="78.92" y2="181.23" xlink:href="#Áåçûìÿííûé_ãðàäèåíò_254"/><linearGradient id="Áåçûìÿííûé_ãðàäèåíò_254-6" x1="21.53" y1="181.23" x2="50.23" y2="181.23" xlink:href="#Áåçûìÿííûé_ãðàäèåíò_254"/><linearGradient id="Áåçûìÿííûé_ãðàäèåíò_2-2" x1="67" y1="229.18" x2="133.15" y2="229.18" xlink:href="#Áåçûìÿííûé_ãðàäèåíò_2"/><linearGradient id="Áåçûìÿííûé_ãðàäèåíò_3-2" x1="67" y1="214.19" x2="159.84" y2="214.19" xlink:href="#Áåçûìÿííûé_ãðàäèåíò_3"/><linearGradient id="Áåçûìÿííûé_ãðàäèåíò_254-7" x1="84.72" y1="214.19" x2="142.12" y2="214.19" xlink:href="#Áåçûìÿííûé_ãðàäèåíò_254"/><linearGradient id="Áåçûìÿííûé_ãðàäèåíò_254-8" x1="113.42" y1="197.71" x2="142.12" y2="197.71" xlink:href="#Áåçûìÿííûé_ãðàäèåíò_254"/><linearGradient id="Áåçûìÿííûé_ãðàäèåíò_254-9" x1="84.72" y1="197.71" x2="113.42" y2="197.71" xlink:href="#Áåçûìÿííûé_ãðàäèåíò_254"/><linearGradient id="Áåçûìÿííûé_ãðàäèåíò_254-10" x1="84.72" y1="194.97" x2="142.12" y2="194.97" xlink:href="#Áåçûìÿííûé_ãðàäèåíò_254"/><linearGradient id="Áåçûìÿííûé_ãðàäèåíò_254-11" x1="113.42" y1="211.45" x2="142.12" y2="211.45" xlink:href="#Áåçûìÿííûé_ãðàäèåíò_254"/><linearGradient id="Áåçûìÿííûé_ãðàäèåíò_254-12" x1="84.72" y1="211.45" x2="113.42" y2="211.45" xlink:href="#Áåçûìÿííûé_ãðàäèåíò_254"/><linearGradient id="Áåçûìÿííûé_ãðàäèåíò_2-3" x1="130.29" y1="259.45" x2="196.45" y2="259.45" xlink:href="#Áåçûìÿííûé_ãðàäèåíò_2"/><linearGradient id="Áåçûìÿííûé_ãðàäèåíò_3-3" x1="130.29" y1="244.46" x2="223.13" y2="244.46" xlink:href="#Áåçûìÿííûé_ãðàäèåíò_3"/><linearGradient id="Áåçûìÿííûé_ãðàäèåíò_254-13" x1="148.01" y1="244.46" x2="205.41" y2="244.46" xlink:href="#Áåçûìÿííûé_ãðàäèåíò_254"/><linearGradient id="Áåçûìÿííûé_ãðàäèåíò_254-14" x1="176.71" y1="227.98" x2="205.41" y2="227.98" xlink:href="#Áåçûìÿííûé_ãðàäèåíò_254"/><linearGradient id="Áåçûìÿííûé_ãðàäèåíò_254-15" x1="148.01" y1="227.98" x2="176.71" y2="227.98" xlink:href="#Áåçûìÿííûé_ãðàäèåíò_254"/><linearGradient id="Áåçûìÿííûé_ãðàäèåíò_254-16" x1="148.01" y1="225.24" x2="205.41" y2="225.24" xlink:href="#Áåçûìÿííûé_ãðàäèåíò_254"/><linearGradient id="Áåçûìÿííûé_ãðàäèåíò_254-17" x1="176.71" y1="241.72" x2="205.41" y2="241.72" xlink:href="#Áåçûìÿííûé_ãðàäèåíò_254"/><linearGradient id="Áåçûìÿííûé_ãðàäèåíò_254-18" x1="148.01" y1="241.72" x2="176.71" y2="241.72" xlink:href="#Áåçûìÿííûé_ãðàäèåíò_254"/><linearGradient id="Áåçûìÿííûé_ãðàäèåíò_3-4" x1="245.08" y1="207.79" x2="245.08" y2="47.38" xlink:href="#Áåçûìÿííûé_ãðàäèåíò_3"/><filter id="luminosity-noclip-2" x="127.03" y="6.44" width="89.49" height="62.96" filterUnits="userSpaceOnUse" color-interpolation-filters="sRGB"><feFlood flood-color="#fff" result="bg"/><feBlend in="SourceGraphic" in2="bg"/></filter><mask id="mask-2" x="122.4" y="2.17" width="89.49" height="62.96" maskUnits="userSpaceOnUse"><g class="cls-86"><g transform="translate(-4.63 -4.26)"><g class="cls-1"><path class="cls-2" d="M183.38,6.44h-6.29L127.88,30c-1,.49-1.14,1.23-.25,1.66L130,32.8l76.45,36.6,10.05-.1Z"/></g></g></g></mask><linearGradient id="Áåçûìÿííûé_ãðàäèåíò_14" x1="140.94" y1="37.92" x2="230.43" y2="37.92" gradientUnits="userSpaceOnUse"><stop offset="0" stop-color="#e9e9fd"/><stop offset="0.04" stop-color="#d3d5f7"/><stop offset="0.11" stop-color="#b2b6ef"/><stop offset="0.18" stop-color="#969be7"/><stop offset="0.27" stop-color="#7f86e1"/><stop offset="0.36" stop-color="#6d75dd"/><stop offset="0.48" stop-color="#606ad9"/><stop offset="0.64" stop-color="#5963d8"/><stop offset="1" stop-color="#5761d7"/></linearGradient><linearGradient id="Áåçûìÿííûé_ãðàäèåíò_24" x1="132.36" y1="34.9" x2="252.15" y2="34.9" gradientUnits="userSpaceOnUse"><stop offset="0" stop-color="#5761d7"/><stop offset="0.18" stop-color="#5c66d9"/><stop offset="0.39" stop-color="#6a73df"/><stop offset="0.61" stop-color="#8289e8"/><stop offset="0.85" stop-color="#a3a7f5"/><stop offset="1" stop-color="#bcbeff"/></linearGradient><linearGradient id="Áåçûìÿííûé_ãðàäèåíò_3-5" x1="211.89" y1="52.64" x2="258.27" y2="52.64" xlink:href="#Áåçûìÿííûé_ãðàäèåíò_3"/><linearGradient id="Áåçûìÿííûé_ãðàäèåíò_3-6" x1="132.36" y1="32.31" x2="258.27" y2="32.31" xlink:href="#Áåçûìÿííûé_ãðàäèåíò_3"/><linearGradient id="Áåçûìÿííûé_ãðàäèåíò_24-2" x1="159.97" y1="17.76" x2="174.78" y2="17.76" xlink:href="#Áåçûìÿííûé_ãðàäèåíò_24"/><linearGradient id="Áåçûìÿííûé_ãðàäèåíò_24-3" x1="163.81" y1="19.59" x2="178.63" y2="19.59" xlink:href="#Áåçûìÿííûé_ãðàäèåíò_24"/><linearGradient id="Áåçûìÿííûé_ãðàäèåíò_24-4" x1="167.66" y1="21.43" x2="182.47" y2="21.43" xlink:href="#Áåçûìÿííûé_ãðàäèåíò_24"/><linearGradient id="Áåçûìÿííûé_ãðàäèåíò_24-5" x1="171.5" y1="23.26" x2="186.32" y2="23.26" xlink:href="#Áåçûìÿííûé_ãðàäèåíò_24"/><linearGradient id="Áåçûìÿííûé_ãðàäèåíò_24-6" x1="182.75" y1="28.68" x2="197.56" y2="28.68" xlink:href="#Áåçûìÿííûé_ãðàäèåíò_24"/><linearGradient id="Áåçûìÿííûé_ãðàäèåíò_24-7" x1="186.59" y1="30.51" x2="201.41" y2="30.51" xlink:href="#Áåçûìÿííûé_ãðàäèåíò_24"/><linearGradient id="Áåçûìÿííûé_ãðàäèåíò_24-8" x1="190.44" y1="32.35" x2="205.25" y2="32.35" xlink:href="#Áåçûìÿííûé_ãðàäèåíò_24"/><linearGradient id="Áåçûìÿííûé_ãðàäèåíò_24-9" x1="194.29" y1="34.18" x2="209.1" y2="34.18" xlink:href="#Áåçûìÿííûé_ãðàäèåíò_24"/><linearGradient id="Áåçûìÿííûé_ãðàäèåíò_24-10" x1="205.53" y1="39.6" x2="220.35" y2="39.6" xlink:href="#Áåçûìÿííûé_ãðàäèåíò_24"/><linearGradient id="Áåçûìÿííûé_ãðàäèåíò_24-11" x1="209.38" y1="41.43" x2="224.19" y2="41.43" xlink:href="#Áåçûìÿííûé_ãðàäèåíò_24"/><linearGradient id="Áåçûìÿííûé_ãðàäèåíò_24-12" x1="213.22" y1="43.27" x2="228.04" y2="43.27" xlink:href="#Áåçûìÿííûé_ãðàäèåíò_24"/><linearGradient id="Áåçûìÿííûé_ãðàäèåíò_24-13" x1="217.07" y1="45.1" x2="231.88" y2="45.1" xlink:href="#Áåçûìÿííûé_ãðàäèåíò_24"/><linearGradient id="Áåçûìÿííûé_ãðàäèåíò_24-14" x1="258.23" y1="133.8" x2="231.93" y2="114.27" xlink:href="#Áåçûìÿííûé_ãðàäèåíò_24"/><linearGradient id="Áåçûìÿííûé_ãðàäèåíò_24-15" x1="225.55" y1="154.45" x2="288.16" y2="154.45" xlink:href="#Áåçûìÿííûé_ãðàäèåíò_24"/><linearGradient id="Áåçûìÿííûé_ãðàäèåíò_3-7" x1="246.59" y1="152.72" x2="309.23" y2="152.72" xlink:href="#Áåçûìÿííûé_ãðàäèåíò_3"/><linearGradient id="Áåçûìÿííûé_ãðàäèåíò_3-8" x1="257.2" y1="155.67" x2="273.23" y2="155.67" xlink:href="#Áåçûìÿííûé_ãðàäèåíò_3"/><clipPath id="clip-path" transform="translate(-4.63 -4.26)"><polygon class="cls-3" points="260.39 137.81 260.39 97.34 225.54 114.02 225.54 154.48 260.39 137.81"/></clipPath><linearGradient id="Áåçûìÿííûé_ãðàäèåíò_3-9" x1="222.91" y1="141.17" x2="285.26" y2="141.17" xlink:href="#Áåçûìÿííûé_ãðàäèåíò_3"/><linearGradient id="Áåçûìÿííûé_ãðàäèåíò_3-10" x1="218.81" y1="137.38" x2="234.77" y2="137.38" xlink:href="#Áåçûìÿííûé_ãðàäèåíò_3"/><linearGradient id="Áåçûìÿííûé_ãðàäèåíò_3-11" x1="207.29" y1="75.32" x2="211.08" y2="75.32" xlink:href="#Áåçûìÿííûé_ãðàäèåíò_3"/><linearGradient id="Áåçûìÿííûé_ãðàäèåíò_24-16" x1="206.83" y1="75.64" x2="209.96" y2="75.64" xlink:href="#Áåçûìÿííûé_ãðàäèåíò_24"/><linearGradient id="Áåçûìÿííûé_ãðàäèåíò_3-12" x1="129.72" y1="38.4" x2="133.51" y2="38.4" xlink:href="#Áåçûìÿííûé_ãðàäèåíò_3"/><linearGradient id="Áåçûìÿííûé_ãðàäèåíò_24-17" x1="129.25" y1="38.72" x2="132.39" y2="38.72" xlink:href="#Áåçûìÿííûé_ãðàäèåíò_24"/><linearGradient id="Áåçûìÿííûé_ãðàäèåíò_3-13" x1="207.29" y1="200.36" x2="211.08" y2="200.36" xlink:href="#Áåçûìÿííûé_ãðàäèåíò_3"/><linearGradient id="Áåçûìÿííûé_ãðàäèåíò_24-18" x1="206.83" y1="200.72" x2="209.96" y2="200.72" xlink:href="#Áåçûìÿííûé_ãðàäèåíò_24"/><linearGradient id="Áåçûìÿííûé_ãðàäèåíò_3-14" x1="207.29" y1="200.63" x2="211.08" y2="200.63" xlink:href="#Áåçûìÿííûé_ãðàäèåíò_3"/><linearGradient id="Áåçûìÿííûé_ãðàäèåíò_24-19" x1="206.83" y1="200.63" x2="209.96" y2="200.63" xlink:href="#Áåçûìÿííûé_ãðàäèåíò_24"/><linearGradient id="Áåçûìÿííûé_ãðàäèåíò_3-15" x1="129.72" y1="163.44" x2="133.51" y2="163.44" xlink:href="#Áåçûìÿííûé_ãðàäèåíò_3"/><linearGradient id="Áåçûìÿííûé_ãðàäèåíò_24-20" x1="129.25" y1="163.8" x2="132.39" y2="163.8" xlink:href="#Áåçûìÿííûé_ãðàäèåíò_24"/><linearGradient id="Áåçûìÿííûé_ãðàäèåíò_3-16" x1="129.72" y1="163.71" x2="133.51" y2="163.71" xlink:href="#Áåçûìÿííûé_ãðàäèåíò_3"/><linearGradient id="Áåçûìÿííûé_ãðàäèåíò_24-21" x1="129.25" y1="163.71" x2="132.39" y2="163.71" xlink:href="#Áåçûìÿííûé_ãðàäèåíò_24"/></defs><title>715 [Convertido]</title><g class="cls-4"><g id="Ñëîé_1" data-name="Ñëîé 1"><path class="cls-5" d="M305,78.67a1,1,0,0,0,.55.8c.31.14.55,0,.55-.27a1,1,0,0,0-.55-.79C305.28,78.27,305,78.38,305,78.67Z" transform="translate(-4.63 -4.26)"/><path class="cls-5" d="M284.35,68.78a1,1,0,0,0,.55.79c.31.14.55,0,.55-.27a1,1,0,0,0-.55-.79C284.6,68.37,284.35,68.49,284.35,68.78Z" transform="translate(-4.63 -4.26)"/><path class="cls-5" d="M305,98.47a1,1,0,0,0,.55.79c.31.15.55,0,.55-.26a1,1,0,0,0-.55-.79C305.28,98.06,305,98.18,305,98.47Z" transform="translate(-4.63 -4.26)"/><path class="cls-5" d="M284.35,88.57a1,1,0,0,0,.55.79c.31.15.55,0,.55-.26a1,1,0,0,0-.55-.79C284.6,88.16,284.35,88.28,284.35,88.57Z" transform="translate(-4.63 -4.26)"/><path class="cls-5" d="M263.68,58.88a1,1,0,0,0,.55.79c.3.15.55,0,.55-.26a1,1,0,0,0-.55-.79C263.92,58.47,263.68,58.59,263.68,58.88Z" transform="translate(-4.63 -4.26)"/><path class="cls-5" d="M263.68,78.67a1,1,0,0,0,.55.8c.3.14.55,0,.55-.27a1,1,0,0,0-.55-.79C263.92,78.27,263.68,78.38,263.68,78.67Z" transform="translate(-4.63 -4.26)"/><path class="cls-5" d="M243,49a1,1,0,0,0,.55.79c.3.15.55,0,.55-.26a1,1,0,0,0-.55-.79C243.24,48.57,243,48.69,243,49Z" transform="translate(-4.63 -4.26)"/><path class="cls-5" d="M243,68.78a1,1,0,0,0,.55.79c.3.14.55,0,.55-.27a1,1,0,0,0-.55-.79C243.24,68.37,243,68.49,243,68.78Z" transform="translate(-4.63 -4.26)"/><path class="cls-5" d="M222.32,39.08a1,1,0,0,0,.55.79c.31.15.55,0,.55-.26a1,1,0,0,0-.55-.79C222.57,38.67,222.32,38.79,222.32,39.08Z" transform="translate(-4.63 -4.26)"/><path class="cls-5" d="M222.32,58.88a1,1,0,0,0,.55.79c.31.15.55,0,.55-.26a1,1,0,0,0-.55-.79C222.57,58.47,222.32,58.59,222.32,58.88Z" transform="translate(-4.63 -4.26)"/><path class="cls-5" d="M201.64,29.19a1,1,0,0,0,.55.79c.31.14.55,0,.55-.27a1,1,0,0,0-.55-.79C201.89,28.78,201.64,28.89,201.64,29.19Z" transform="translate(-4.63 -4.26)"/><path class="cls-5" d="M201.64,49a1,1,0,0,0,.55.79c.31.15.55,0,.55-.26a1,1,0,0,0-.55-.79C201.89,48.57,201.64,48.69,201.64,49Z" transform="translate(-4.63 -4.26)"/><path class="cls-5" d="M181,19.29a1,1,0,0,0,.55.79c.3.14.55,0,.55-.26a1,1,0,0,0-.55-.8C181.21,18.88,181,19,181,19.29Z" transform="translate(-4.63 -4.26)"/><path class="cls-5" d="M181,39.08a1,1,0,0,0,.55.79c.3.15.55,0,.55-.26a1,1,0,0,0-.55-.79C181.21,38.67,181,38.79,181,39.08Z" transform="translate(-4.63 -4.26)"/><path class="cls-5" d="M305,118.26a1,1,0,0,0,.55.8c.31.14.55,0,.55-.27a1,1,0,0,0-.55-.79C305.28,117.86,305,118,305,118.26Z" transform="translate(-4.63 -4.26)"/><path class="cls-5" d="M284.35,108.37a1,1,0,0,0,.55.79c.31.14.55,0,.55-.27a1,1,0,0,0-.55-.79C284.6,108,284.35,108.08,284.35,108.37Z" transform="translate(-4.63 -4.26)"/><path class="cls-5" d="M263.68,98.47a1,1,0,0,0,.55.79c.3.15.55,0,.55-.26a1,1,0,0,0-.55-.79C263.92,98.06,263.68,98.18,263.68,98.47Z" transform="translate(-4.63 -4.26)"/><path class="cls-5" d="M243,88.57a1,1,0,0,0,.55.79c.3.15.55,0,.55-.26a1,1,0,0,0-.55-.79C243.24,88.16,243,88.28,243,88.57Z" transform="translate(-4.63 -4.26)"/><path class="cls-5" d="M222.32,78.67a1,1,0,0,0,.55.79c.31.15.55,0,.55-.26a1,1,0,0,0-.55-.79C222.57,78.26,222.32,78.38,222.32,78.67Z" transform="translate(-4.63 -4.26)"/><path class="cls-5" d="M201.64,68.78a1,1,0,0,0,.55.79c.31.14.55,0,.55-.27a1,1,0,0,0-.55-.79C201.89,68.37,201.64,68.48,201.64,68.78Z" transform="translate(-4.63 -4.26)"/><path class="cls-5" d="M181,58.88a1,1,0,0,0,.55.79c.3.14.55,0,.55-.26a1,1,0,0,0-.55-.8C181.21,58.47,181,58.59,181,58.88Z" transform="translate(-4.63 -4.26)"/><path class="cls-5" d="M305,138.06a1,1,0,0,0,.55.79c.31.15.55,0,.55-.26a1,1,0,0,0-.55-.79C305.28,137.65,305,137.77,305,138.06Z" transform="translate(-4.63 -4.26)"/><path class="cls-5" d="M284.35,128.16a1,1,0,0,0,.55.79c.31.15.55,0,.55-.26a1,1,0,0,0-.55-.79C284.6,127.75,284.35,127.87,284.35,128.16Z" transform="translate(-4.63 -4.26)"/><path class="cls-5" d="M263.68,118.26a1,1,0,0,0,.55.8c.3.14.55,0,.55-.27a1,1,0,0,0-.55-.79C263.92,117.86,263.68,118,263.68,118.26Z" transform="translate(-4.63 -4.26)"/><path class="cls-5" d="M243,108.37a1,1,0,0,0,.55.79c.3.14.55,0,.55-.27a1,1,0,0,0-.55-.79C243.24,108,243,108.08,243,108.37Z" transform="translate(-4.63 -4.26)"/><path class="cls-5" d="M222.32,98.47a1,1,0,0,0,.55.79c.31.15.55,0,.55-.26a1,1,0,0,0-.55-.79C222.57,98.06,222.32,98.18,222.32,98.47Z" transform="translate(-4.63 -4.26)"/><path class="cls-5" d="M201.64,88.57a1,1,0,0,0,.55.79c.31.15.55,0,.55-.26a1,1,0,0,0-.55-.79C201.89,88.16,201.64,88.28,201.64,88.57Z" transform="translate(-4.63 -4.26)"/><ellipse class="cls-5" cx="181.52" cy="78.94" rx="0.42" ry="0.69" transform="translate(-12.23 133.12) rotate(-40.68)"/><path class="cls-5" d="M305,157.85a1,1,0,0,0,.55.8c.31.14.55,0,.55-.27a1,1,0,0,0-.55-.79C305.28,157.45,305,157.56,305,157.85Z" transform="translate(-4.63 -4.26)"/><path class="cls-5" d="M284.35,148a1,1,0,0,0,.55.79c.31.14.55,0,.55-.27a1,1,0,0,0-.55-.79C284.6,147.55,284.35,147.67,284.35,148Z" transform="translate(-4.63 -4.26)"/><path class="cls-5" d="M263.68,138.06a1,1,0,0,0,.55.79c.3.15.55,0,.55-.26a1,1,0,0,0-.55-.79C263.92,137.65,263.68,137.77,263.68,138.06Z" transform="translate(-4.63 -4.26)"/><path class="cls-5" d="M243,128.16a1,1,0,0,0,.55.79c.3.15.55,0,.55-.26a1,1,0,0,0-.55-.79C243.24,127.75,243,127.87,243,128.16Z" transform="translate(-4.63 -4.26)"/><path class="cls-5" d="M222.32,118.26a1,1,0,0,0,.55.79c.31.15.55,0,.55-.26a1,1,0,0,0-.55-.79C222.57,117.85,222.32,118,222.32,118.26Z" transform="translate(-4.63 -4.26)"/><path class="cls-5" d="M201.64,108.37a1,1,0,0,0,.55.79c.31.14.55,0,.55-.27a1,1,0,0,0-.55-.79C201.89,108,201.64,108.07,201.64,108.37Z" transform="translate(-4.63 -4.26)"/><ellipse class="cls-5" cx="181.52" cy="98.73" rx="0.42" ry="0.69" transform="translate(-25.13 137.9) rotate(-40.68)"/><path class="cls-5" d="M305,177.65a1,1,0,0,0,.55.79c.31.15.55,0,.55-.26a1,1,0,0,0-.55-.79C305.28,177.24,305,177.36,305,177.65Z" transform="translate(-4.63 -4.26)"/><path class="cls-5" d="M284.35,167.75a1,1,0,0,0,.55.79c.31.15.55,0,.55-.26a1,1,0,0,0-.55-.79C284.6,167.34,284.35,167.46,284.35,167.75Z" transform="translate(-4.63 -4.26)"/><path class="cls-5" d="M263.68,157.85a1,1,0,0,0,.55.8c.3.14.55,0,.55-.27a1,1,0,0,0-.55-.79C263.92,157.45,263.68,157.56,263.68,157.85Z" transform="translate(-4.63 -4.26)"/><path class="cls-5" d="M243,148a1,1,0,0,0,.55.79c.3.14.55,0,.55-.27a1,1,0,0,0-.55-.79C243.24,147.55,243,147.67,243,148Z" transform="translate(-4.63 -4.26)"/><ellipse class="cls-5" cx="222.87" cy="138.32" rx="0.42" ry="0.69" transform="translate(-40.94 174.42) rotate(-40.68)"/><path class="cls-5" d="M201.64,128.16a1,1,0,0,0,.55.79c.31.15.55,0,.55-.26a1,1,0,0,0-.55-.79C201.89,127.75,201.64,127.87,201.64,128.16Z" transform="translate(-4.63 -4.26)"/><path class="cls-5" d="M181,118.26a1,1,0,0,0,.55.79c.3.15.55,0,.55-.26a1,1,0,0,0-.55-.79C181.21,117.85,181,118,181,118.26Z" transform="translate(-4.63 -4.26)"/><path class="cls-5" d="M54.86,229,4.63,205l50.22-24,50.23,24ZM6.05,205l48.81,23.36L103.66,205,54.85,181.59Z" transform="translate(-4.63 -4.26)"/><polygon class="cls-6" points="96.65 191.74 96.65 183.97 50.23 205.21 3.8 183.97 3.8 191.74 50.23 213.96 96.65 191.74"/><polygon class="cls-7" points="50.23 206.2 3.8 183.97 50.23 161.75 96.65 183.97 50.23 206.2"/><polygon class="cls-8" points="50.23 205.56 4.47 183.65 3.8 183.97 50.23 206.2 96.65 183.97 95.98 183.66 50.23 205.56"/><polygon class="cls-9" points="50.23 197.71 21.53 183.97 50.23 170.24 78.92 183.97 50.23 197.71"/><polygon class="cls-10" points="50.23 197.71 21.53 183.97 50.23 170.24 78.92 183.97 50.23 197.71"/><polygon class="cls-11" points="50.23 151.02 78.92 164.76 78.92 183.97 50.23 170.24 50.23 151.02"/><polygon class="cls-12" points="50.23 170.24 21.53 183.97 21.53 164.76 50.23 151.02 50.23 170.24"/><polygon class="cls-13" points="50.23 178.49 21.53 164.76 50.23 151.02 78.92 164.76 50.23 178.49"/><polygon class="cls-14" points="50.23 178.49 50.23 197.71 78.92 183.97 78.92 164.76 50.23 178.49"/><polygon class="cls-15" points="21.53 164.76 21.53 183.97 50.23 197.71 50.23 178.49 21.53 164.76"/><polygon class="cls-5" points="113.97 219.74 113.64 219.26 162.53 195.86 162.86 196.33 113.97 219.74"/><path class="cls-5" d="M118.05,259.2l-50.23-24,50.23-24,50.23,24Zm-48.8-24,48.8,23.36,48.8-23.36-48.8-23.36Z" transform="translate(-4.63 -4.26)"/><polygon class="cls-16" points="159.84 221.96 159.84 214.19 113.42 235.43 67 214.19 67 221.96 113.42 244.18 159.84 221.96"/><polygon class="cls-17" points="113.42 236.41 67 214.19 113.42 191.97 159.84 214.19 113.42 236.41"/><polygon class="cls-8" points="113.42 235.77 67.67 213.87 67 214.19 113.42 236.41 159.84 214.19 159.17 213.87 113.42 235.77"/><polygon class="cls-9" points="113.42 227.93 84.72 214.19 113.42 200.45 142.12 214.19 113.42 227.93"/><polygon class="cls-18" points="113.42 227.93 84.72 214.19 113.42 200.45 142.12 214.19 113.42 227.93"/><polygon class="cls-19" points="113.42 181.23 142.12 194.97 142.12 214.19 113.42 200.45 113.42 181.23"/><polygon class="cls-20" points="113.42 200.45 84.72 214.19 84.72 194.97 113.42 181.23 113.42 200.45"/><polygon class="cls-21" points="113.42 208.71 84.72 194.97 113.42 181.23 142.12 194.97 113.42 208.71"/><polygon class="cls-22" points="113.42 208.71 113.42 227.93 142.12 214.19 142.12 194.97 113.42 208.71"/><polygon class="cls-23" points="84.72 194.97 84.72 214.19 113.42 227.93 113.42 208.71 84.72 194.97"/><polygon class="cls-24" points="113.42 208.05 85.4 194.64 84.72 194.97 113.42 208.71 142.12 194.97 141.43 194.64 113.42 208.05"/><path class="cls-5" d="M181.34,289.47l-50.22-24,50.22-24,50.23,24Zm-48.8-24,48.8,23.36,48.81-23.36-48.81-23.36Z" transform="translate(-4.63 -4.26)"/><polygon class="cls-25" points="223.13 252.23 223.13 244.46 176.71 265.7 130.29 244.46 130.29 252.23 176.71 274.45 223.13 252.23"/><polygon class="cls-26" points="176.71 266.68 130.29 244.46 176.71 222.24 223.13 244.46 176.71 266.68"/><polygon class="cls-8" points="176.71 266.04 130.96 244.14 130.29 244.46 176.71 266.68 223.13 244.46 222.47 244.14 176.71 266.04"/><polygon class="cls-9" points="176.71 258.2 148.01 244.46 176.71 230.72 205.41 244.46 176.71 258.2"/><polygon class="cls-27" points="176.71 258.2 148.01 244.46 176.71 230.72 205.41 244.46 176.71 258.2"/><polygon class="cls-28" points="176.71 211.5 205.41 225.24 205.41 244.46 176.71 230.72 176.71 211.5"/><polygon class="cls-29" points="176.71 230.72 148.01 244.46 148.01 225.24 176.71 211.5 176.71 230.72"/><polygon class="cls-30" points="176.71 238.98 148.01 225.24 176.71 211.5 205.41 225.24 176.71 238.98"/><polygon class="cls-31" points="176.71 238.98 176.71 258.2 205.41 244.46 205.41 225.24 176.71 238.98"/><polygon class="cls-32" points="148.01 225.24 148.01 244.46 176.71 258.2 176.71 238.98 148.01 225.24"/><path class="cls-5" d="M219.51,225a5.27,5.27,0,0,1-2.21-.44L117.22,176.68a1.76,1.76,0,0,1-1.18-1.53,2.15,2.15,0,0,1,1.46-1.78l60.16-28.8a6.43,6.43,0,0,1,4.94-.14l100.08,47.91a1.76,1.76,0,0,1,1.18,1.53,2.17,2.17,0,0,1-1.46,1.79l-60.16,28.8A6.59,6.59,0,0,1,219.51,225Zm-39.12-80.44a5.55,5.55,0,0,0-2.37.49l-60.16,28.8c-.71.33-1.11.8-1.11,1.27a1.23,1.23,0,0,0,.82,1l100.08,47.91a5.75,5.75,0,0,0,4.23-.14L282,195.15c.71-.34,1.11-.8,1.11-1.28a1.21,1.21,0,0,0-.82-1L182.25,144.94A4.61,4.61,0,0,0,180.39,144.59Z" transform="translate(-4.63 -4.26)"/><path class="cls-33" d="M216.2,66.51h9.68l-2.32-4.37L127,30.91V164.74h0a.89.89,0,0,0,.58.64l88,42.13a2.45,2.45,0,0,0,.56.18Z" transform="translate(-4.63 -4.26)"/><path class="cls-34" d="M272.87,47.38,217.33,73.66V154.1h0v53.7s0,0,0,0h0a4.51,4.51,0,0,0,1.78-.4L272,182.07c.54-.26.82-.6.84-.91h0Z" transform="translate(-4.63 -4.26)"/><path class="cls-35" d="M213.34,33.45v173l2.3,1.1a3.84,3.84,0,0,0,1.65.29c.64,0,.67-.32,1.2-.57l.47-.16-.51-20.53V154.39l1.16-120.94Z" transform="translate(-4.63 -4.26)"/><path class="cls-36" d="M219.61,186.83V72.58l-2.28,1.08V154.1h0v53.7s0,0,0,0h0a2.56,2.56,0,0,0,.39,0h.08a4.77,4.77,0,0,0,.85-.19h.06l.4-.17.5-.23Z" transform="translate(-4.63 -4.26)"/><g class="cls-37"><polygon class="cls-38" points="126.75 34 204.32 71.13 204.32 196.2 126.75 159.07 126.75 34"/></g><g class="cls-37"><polygon class="cls-38" points="122.4 141.02 208.71 93.12 208.71 68.42 122.4 26.65 122.4 141.02"/></g><path class="cls-39" d="M215.64,73.79l-88-42.13c-.89-.43-.78-1.17.25-1.66L180.79,4.67a4.61,4.61,0,0,1,3.47-.12l88,42.13c.89.43.78,1.17-.25,1.66L219.11,73.67A4.61,4.61,0,0,1,215.64,73.79Z" transform="translate(-4.63 -4.26)"/><path class="cls-40" d="M272,47.74,219.11,73.06a4.56,4.56,0,0,1-3.47.12l-88-42.13a1.12,1.12,0,0,1-.51-.43c-.21.38-.05.77.51,1l88,42.13a4.61,4.61,0,0,0,3.47-.12L272,48.34c.73-.35,1-.83.76-1.23A1.66,1.66,0,0,1,272,47.74Z" transform="translate(-4.63 -4.26)"/><g class="cls-41"><path class="cls-42" d="M183.38,6.44h-6.29L127.88,30c-1,.49-1.14,1.23-.25,1.66L130,32.8l76.45,36.6,10.05-.1Z" transform="translate(-4.63 -4.26)"/></g><polygon class="cls-43" points="178.75 4.77 136.46 25.01 132.37 24.38 132.37 26.97 211.89 65.04 252.15 42.34 178.75 4.77"/><polygon class="cls-44" points="258.27 40.24 258.27 42.84 211.89 65.04 211.89 62.45 258.27 40.24"/><polygon class="cls-45" points="211.89 62.45 132.37 24.38 178.75 2.17 258.27 40.24 211.89 62.45"/><polygon class="cls-40" points="211.89 61.89 132.95 24.1 132.37 24.38 211.89 62.45 258.27 40.24 257.69 39.96 211.89 61.89"/><polygon class="cls-46" points="162.05 21.6 160.78 21 160.88 20.5 172.64 14.83 174.27 15.48 173.97 15.9 162.05 21.6"/><polygon class="cls-47" points="172.7 15.29 173.97 15.9 174.78 15.51 172.7 14.51 159.97 20.61 160.78 21 172.7 15.29"/><polygon class="cls-46" points="165.89 23.44 164.63 22.83 164.73 22.34 176.48 16.67 178.12 17.31 177.81 17.73 165.89 23.44"/><polygon class="cls-48" points="176.54 17.13 177.81 17.73 178.63 17.34 176.54 16.35 163.81 22.44 164.63 22.83 176.54 17.13"/><polygon class="cls-46" points="169.74 25.27 168.47 24.67 168.58 24.18 180.33 18.5 181.96 19.15 181.66 19.57 169.74 25.27"/><polygon class="cls-49" points="180.39 18.96 181.66 19.57 182.47 19.18 180.39 18.18 167.66 24.28 168.47 24.67 180.39 18.96"/><polygon class="cls-46" points="173.59 27.11 172.32 26.5 172.42 26.01 184.17 20.34 185.81 20.98 185.5 21.4 173.59 27.11"/><polygon class="cls-50" points="184.24 20.8 185.5 21.4 186.32 21.01 184.24 20.02 171.5 26.11 172.32 26.5 184.24 20.8"/><polygon class="cls-46" points="184.83 32.53 183.56 31.92 183.67 31.43 195.42 25.76 197.05 26.4 196.75 26.82 184.83 32.53"/><polygon class="cls-51" points="195.48 26.22 196.75 26.82 197.56 26.43 195.48 25.43 182.75 31.53 183.56 31.92 195.48 26.22"/><polygon class="cls-46" points="188.68 34.36 187.41 33.75 187.51 33.26 199.27 27.59 200.9 28.24 200.59 28.66 188.68 34.36"/><polygon class="cls-52" points="199.33 28.05 200.59 28.66 201.41 28.27 199.33 27.27 186.59 33.36 187.41 33.76 199.33 28.05"/><polygon class="cls-46" points="192.52 36.2 191.25 35.59 191.36 35.1 203.11 29.43 204.74 30.07 204.44 30.49 192.52 36.2"/><polygon class="cls-53" points="203.17 29.89 204.44 30.49 205.25 30.1 203.17 29.1 190.44 35.2 191.26 35.59 203.17 29.89"/><polygon class="cls-46" points="196.37 38.03 195.1 37.42 195.2 36.93 206.96 31.26 208.59 31.91 208.28 32.33 196.37 38.03"/><polygon class="cls-54" points="207.02 31.72 208.28 32.33 209.1 31.94 207.02 30.94 194.29 37.03 195.1 37.42 207.02 31.72"/><polygon class="cls-46" points="207.61 43.45 206.34 42.84 206.45 42.35 218.2 36.68 219.83 37.32 219.53 37.74 207.61 43.45"/><polygon class="cls-55" points="218.26 37.14 219.53 37.74 220.35 37.35 218.26 36.36 205.53 42.45 206.35 42.84 218.26 37.14"/><polygon class="cls-46" points="211.46 45.28 210.19 44.68 210.3 44.18 222.05 38.51 223.68 39.16 223.38 39.58 211.46 45.28"/><polygon class="cls-56" points="222.11 38.97 223.38 39.58 224.19 39.19 222.11 38.19 209.38 44.29 210.19 44.68 222.11 38.97"/><polygon class="cls-46" points="215.3 47.12 214.04 46.51 214.14 46.02 225.89 40.35 227.53 40.99 227.22 41.41 215.3 47.12"/><polygon class="cls-57" points="225.96 40.81 227.22 41.41 228.04 41.02 225.96 40.03 213.22 46.12 214.04 46.51 225.96 40.81"/><polygon class="cls-46" points="219.15 48.95 217.88 48.35 217.99 47.85 229.74 42.18 231.37 42.83 231.07 43.25 219.15 48.95"/><polygon class="cls-58" points="229.8 42.64 231.07 43.25 231.88 42.86 229.8 41.86 217.07 47.96 217.88 48.35 229.8 42.64"/><polygon class="cls-39" points="259.99 133.39 220.91 152.09 220.91 107.81 259.99 89.1 259.99 133.39"/><polygon class="cls-59" points="257.82 90.14 257.82 132.55 220.91 150.22 220.91 152.09 259.99 133.39 259.99 89.1 257.82 90.14"/><path class="cls-60" d="M288.16,149.08l-2.09.91-21-10.06a1.86,1.86,0,0,0-1.37,0l-36.22,17.34c-.35-.16-1.93-.79-1.93-.79l.77,1.65h0a.4.4,0,0,0,.22.2L248.65,169a1.86,1.86,0,0,0,1.37-.05l37.07-17.74a.62.62,0,0,0,.31-.28h0Z" transform="translate(-4.63 -4.26)"/><path class="cls-61" d="M287.84,149.37l-38,18.18a1.84,1.84,0,0,1-1.4,0l-22.67-10.85c-.36-.18-.31-.48.1-.68l38-18.18a1.84,1.84,0,0,1,1.4,0l22.67,10.85C288.3,148.87,288.26,149.17,287.84,149.37Z" transform="translate(-4.63 -4.26)"/><path class="cls-62" d="M238.4,163.61v-.34s0-.05,0,0l1.47.7a.09.09,0,0,1,.05.08v.35s0,0-.05,0l-1.47-.7A.09.09,0,0,1,238.4,163.61Z" transform="translate(-4.63 -4.26)"/><path class="cls-62" d="M240.59,164.67v-.35a0,0,0,0,1,.06,0l1.47.7a.09.09,0,0,1,0,.09v.34s0,.05,0,0l-1.47-.7A.1.1,0,0,1,240.59,164.67Z" transform="translate(-4.63 -4.26)"/><path class="cls-63" d="M231.69,155.73l31.57-15.11a.81.81,0,0,1,.68,0L275.18,146a.19.19,0,0,1,0,.35l-31.55,15.1a.81.81,0,0,1-.68,0l-11.26-5.38A.19.19,0,0,1,231.69,155.73Z" transform="translate(-4.63 -4.26)"/><path class="cls-64" d="M231.69,156.08l.12,0,31.45-15a.81.81,0,0,1,.68,0l11.12,5.33.12,0a.19.19,0,0,0,0-.35l-11.24-5.39a.81.81,0,0,0-.68,0l-31.57,15.11A.19.19,0,0,0,231.69,156.08Z" transform="translate(-4.63 -4.26)"/><polygon class="cls-33" points="260.16 137.72 232.74 150.85 231.52 150.26 258.94 137.14 260.16 137.72"/><polygon class="cls-33" points="263.14 139.15 237.43 151.46 236.21 150.88 261.93 138.57 263.14 139.15"/><polygon class="cls-33" points="265.09 140.08 234.81 154.58 233.59 154 263.87 139.5 265.09 140.08"/><polygon class="cls-33" points="267.04 141.02 236.76 155.51 235.54 154.93 265.82 140.43 267.04 141.02"/><polygon class="cls-33" points="268.99 141.95 238.7 156.44 237.49 155.86 267.76 141.36 268.99 141.95"/><polygon class="cls-33" points="231.08 151.64 229.86 152.22 228.64 151.64 229.86 151.06 231.08 151.64"/><polygon class="cls-33" points="235.38 152.44 232.85 153.65 231.63 153.07 234.16 151.86 235.38 152.44"/><path class="cls-65" d="M264.47,159.39l8.51-4.08c.34-.16.34-.42,0-.57L267.16,152a1.56,1.56,0,0,0-1.2,0L257.45,156c-.33.16-.33.42,0,.58l5.82,2.79A1.56,1.56,0,0,0,264.47,159.39Z" transform="translate(-4.63 -4.26)"/><path class="cls-64" d="M257.45,156.26l8.51-4.07a1.56,1.56,0,0,1,1.2,0L273,155a.47.47,0,0,1,.21.17c.09-.14,0-.29-.21-.4L267.16,152a1.56,1.56,0,0,0-1.2,0L257.45,156c-.23.11-.3.27-.21.41A.54.54,0,0,1,257.45,156.26Z" transform="translate(-4.63 -4.26)"/><polygon class="cls-33" points="257.82 90.14 220.91 107.81 220.91 150.22 257.82 132.55 257.82 90.14"/><polygon class="cls-33" points="257.82 90.14 220.91 107.81 220.91 150.22 257.82 132.55 257.82 90.14"/><g class="cls-37"><polygon class="cls-38" points="255.76 133.54 255.76 93.08 220.91 109.75 220.91 150.22 255.76 133.54"/></g><g class="cls-66"><g class="cls-67"><path class="cls-68" d="M264,137.83l-37.81,18.1a1.84,1.84,0,0,1-1.4,0l-22.56-10.8c-.35-.17-.31-.47.1-.67l37.81-18.1a1.84,1.84,0,0,1,1.4,0l22.56,10.79C264.42,137.34,264.38,137.64,264,137.83Z" transform="translate(-4.63 -4.26)"/><path class="cls-69" d="M226.05,141.08l8.47-4.06c.33-.16.33-.41,0-.57l-5.79-2.77a1.56,1.56,0,0,0-1.2,0l-8.47,4c-.33.16-.33.42,0,.58l5.79,2.77A1.56,1.56,0,0,0,226.05,141.08Z" transform="translate(-4.63 -4.26)"/><path class="cls-64" d="M219.06,138l8.47-4.06a1.56,1.56,0,0,1,1.2,0l5.79,2.77a.54.54,0,0,1,.21.17c.08-.14,0-.29-.21-.4l-5.79-2.77a1.56,1.56,0,0,0-1.2,0l-8.47,4c-.23.11-.3.27-.21.41A.37.37,0,0,1,219.06,138Z" transform="translate(-4.63 -4.26)"/><path class="cls-63" d="M215.33,147.41l31.42-15a.81.81,0,0,1,.68,0l11.18,5.36a.19.19,0,0,1,0,.35l-31.4,15a.79.79,0,0,1-.67,0l-11.21-5.36A.19.19,0,0,1,215.33,147.41Z" transform="translate(-4.63 -4.26)"/><path class="cls-64" d="M215.33,147.76l.12.05,31.3-15a.81.81,0,0,1,.68,0l11.07,5.31.11,0a.19.19,0,0,0,0-.35l-11.18-5.36a.81.81,0,0,0-.68,0l-31.42,15A.19.19,0,0,0,215.33,147.76Z" transform="translate(-4.63 -4.26)"/><polygon class="cls-33" points="251.05 133.11 223.69 146.21 224.77 146.73 252.14 133.63 251.05 133.11"/><polygon class="cls-33" points="248.17 131.73 222.16 144.18 223.24 144.7 249.25 132.25 248.17 131.73"/><polygon class="cls-33" points="220.22 145.11 217.79 146.28 218.87 146.8 221.3 145.63 220.22 145.11"/><polygon class="cls-33" points="222.36 146.85 220.67 147.66 221.75 148.18 223.44 147.37 222.36 146.85"/><polygon class="cls-33" points="246.36 130.87 215.98 145.41 217.06 145.93 247.45 131.39 246.36 130.87"/><polygon class="cls-33" points="244.56 130 214.17 144.55 215.26 145.07 245.64 130.52 244.56 130"/><polygon class="cls-33" points="242.75 129.14 212.37 143.68 213.45 144.2 243.83 129.66 242.75 129.14"/></g></g><polygon class="cls-70" points="231.09 115.57 229.37 116.39 229.37 115.44 231.09 114.61 231.09 115.57"/><polygon class="cls-70" points="231.09 122.04 229.37 122.86 229.37 117.27 231.09 116.44 231.09 122.04"/><polygon class="cls-70" points="231.09 125.13 229.37 125.95 229.37 123.73 231.09 122.91 231.09 125.13"/><polygon class="cls-70" points="231.09 128.34 229.37 129.16 229.37 126.94 231.09 126.11 231.09 128.34"/><polygon class="cls-70" points="233.66 117.43 231.94 118.26 231.94 116.04 233.66 115.21 233.66 117.43"/><polygon class="cls-70" points="233.66 121.68 231.94 122.5 231.94 119.24 233.66 118.42 233.66 121.68"/><polygon class="cls-70" points="233.66 125.59 231.94 126.41 231.94 123.61 233.66 122.79 233.66 125.59"/><polygon class="cls-70" points="231.09 131.54 229.37 132.37 229.37 130.14 231.09 129.32 231.09 131.54"/><polygon class="cls-70" points="233.66 114.34 231.94 115.17 231.94 114.21 233.66 113.39 233.66 114.34"/><polygon class="cls-70" points="232.38 134.04 229.37 135.48 229.37 134.55 232.38 133.11 232.38 134.04"/><path class="cls-71" d="M211.08,75.85a2.81,2.81,0,0,0-1.57-2.25,1.27,1.27,0,0,0-1.11-.09h0l-1.11.54.69,0a1.14,1.14,0,0,0,0,.28,2.83,2.83,0,0,0,1.56,2.25,1.74,1.74,0,0,0,.34.12l-.32.5,1.09-.53h0A.86.86,0,0,0,211.08,75.85Z" transform="translate(-4.63 -4.26)"/><path class="cls-72" d="M210,76.39c0,.83-.7,1.17-1.56.75a2.81,2.81,0,0,1-1.57-2.25c0-.83.7-1.17,1.57-.75A2.81,2.81,0,0,1,210,76.39Z" transform="translate(-4.63 -4.26)"/><path class="cls-46" d="M209.3,76.07c0,.48-.41.67-.9.43a1.63,1.63,0,0,1-.91-1.29c0-.48.41-.67.91-.43A1.61,1.61,0,0,1,209.3,76.07Z" transform="translate(-4.63 -4.26)"/><path class="cls-73" d="M133.51,38.93a2.83,2.83,0,0,0-1.57-2.26,1.3,1.3,0,0,0-1.11-.08h0l-1.11.53.68,0a1.27,1.27,0,0,0,0,.28,2.86,2.86,0,0,0,1.57,2.26l.34.12-.32.5,1.08-.53h0A.86.86,0,0,0,133.51,38.93Z" transform="translate(-4.63 -4.26)"/><path class="cls-74" d="M132.39,39.47c0,.83-.7,1.16-1.57.75A2.84,2.84,0,0,1,129.25,38c0-.83.71-1.17,1.57-.75A2.81,2.81,0,0,1,132.39,39.47Z" transform="translate(-4.63 -4.26)"/><path class="cls-46" d="M131.73,39.15c0,.48-.41.67-.91.43a1.64,1.64,0,0,1-.9-1.29c0-.48.41-.67.9-.44A1.63,1.63,0,0,1,131.73,39.15Z" transform="translate(-4.63 -4.26)"/><path class="cls-75" d="M211.08,200.89a2.81,2.81,0,0,0-1.57-2.25,1.27,1.27,0,0,0-1.11-.09h0l-1.11.54h0a1.28,1.28,0,0,1,1.11.09,2.81,2.81,0,0,1,1.56,2.25.86.86,0,0,1-.43.82h0l1.09-.53h0A.86.86,0,0,0,211.08,200.89Z" transform="translate(-4.63 -4.26)"/><path class="cls-76" d="M209.51,201.64a1.92,1.92,0,0,1-.31-.18.62.62,0,0,1-.8.08,1.6,1.6,0,0,1-.91-1.29.48.48,0,0,1,.49-.53,1.84,1.84,0,0,1,0-.33,1.2,1.2,0,0,1,0-.28l-.69,0a.85.85,0,0,0-.46.84,2.81,2.81,0,0,0,1.57,2.25,1.21,1.21,0,0,0,1.13.07l.32-.48A1.81,1.81,0,0,1,209.51,201.64Z" transform="translate(-4.63 -4.26)"/><path class="cls-77" d="M210,201.43a2.81,2.81,0,0,0-1.56-2.25,1.28,1.28,0,0,0-1.11-.09l.69,0a1.2,1.2,0,0,0,0,.28,1.84,1.84,0,0,0,0,.33,1,1,0,0,1,.42.1,1.64,1.64,0,0,1,.9,1.29.61.61,0,0,1-.1.35,1.92,1.92,0,0,0,.31.18,1.81,1.81,0,0,0,.34.13l-.32.48A.86.86,0,0,0,210,201.43Z" transform="translate(-4.63 -4.26)"/><path class="cls-78" d="M210,201.43a2.81,2.81,0,0,0-1.56-2.25,1.28,1.28,0,0,0-1.11-.09l.69,0a1.2,1.2,0,0,0,0,.28,1.84,1.84,0,0,0,0,.33,1,1,0,0,1,.42.1,1.64,1.64,0,0,1,.9,1.29.61.61,0,0,1-.1.35,1.92,1.92,0,0,0,.31.18,1.81,1.81,0,0,0,.34.13l-.32.48A.86.86,0,0,0,210,201.43Z" transform="translate(-4.63 -4.26)"/><path class="cls-46" d="M207.49,200.25a1.6,1.6,0,0,0,.91,1.29.62.62,0,0,0,.8-.08,3,3,0,0,1-1.22-1.74A.48.48,0,0,0,207.49,200.25Z" transform="translate(-4.63 -4.26)"/><path class="cls-46" d="M209.2,201.46a.61.61,0,0,0,.1-.35,1.64,1.64,0,0,0-.9-1.29,1,1,0,0,0-.42-.1A3,3,0,0,0,209.2,201.46Z" transform="translate(-4.63 -4.26)"/><path class="cls-79" d="M131.94,161.72a1.27,1.27,0,0,0-1.11-.09h0l-1.11.54h0a1.25,1.25,0,0,1,1.1.09,2.81,2.81,0,0,1,1.57,2.25.86.86,0,0,1-.43.82h0l1.08-.53h0a.85.85,0,0,0,.47-.84A2.81,2.81,0,0,0,131.94,161.72Z" transform="translate(-4.63 -4.26)"/><path class="cls-80" d="M131.94,164.72c-.11-.05-.21-.12-.32-.18a.62.62,0,0,1-.8.08,1.64,1.64,0,0,1-.9-1.29.47.47,0,0,1,.49-.53,2,2,0,0,1,0-.33,1.14,1.14,0,0,1,0-.28l-.68,0a.85.85,0,0,0-.47.84,2.83,2.83,0,0,0,1.57,2.25,1.23,1.23,0,0,0,1.14.07l.32-.49A1.74,1.74,0,0,1,131.94,164.72Z" transform="translate(-4.63 -4.26)"/><path class="cls-81" d="M132.39,164.51a2.81,2.81,0,0,0-1.57-2.25,1.25,1.25,0,0,0-1.1-.09l.68,0a1.14,1.14,0,0,0,0,.28,2,2,0,0,0,0,.33.85.85,0,0,1,.41.1,1.6,1.6,0,0,1,.91,1.29.56.56,0,0,1-.11.35c.11.06.21.13.32.18a1.74,1.74,0,0,0,.34.12l-.32.49A.86.86,0,0,0,132.39,164.51Z" transform="translate(-4.63 -4.26)"/><path class="cls-82" d="M132.39,164.51a2.81,2.81,0,0,0-1.57-2.25,1.25,1.25,0,0,0-1.1-.09l.68,0a1.14,1.14,0,0,0,0,.28,2,2,0,0,0,0,.33.85.85,0,0,1,.41.1,1.6,1.6,0,0,1,.91,1.29.56.56,0,0,1-.11.35c.11.06.21.13.32.18a1.74,1.74,0,0,0,.34.12l-.32.49A.86.86,0,0,0,132.39,164.51Z" transform="translate(-4.63 -4.26)"/><path class="cls-46" d="M129.92,163.33a1.64,1.64,0,0,0,.9,1.29.62.62,0,0,0,.8-.08,3,3,0,0,1-1.21-1.74A.47.47,0,0,0,129.92,163.33Z" transform="translate(-4.63 -4.26)"/><path class="cls-46" d="M131.62,164.54a.56.56,0,0,0,.11-.35,1.6,1.6,0,0,0-.91-1.29.85.85,0,0,0-.41-.1A3,3,0,0,0,131.62,164.54Z" transform="translate(-4.63 -4.26)"/><g class="cls-83"><polygon class="cls-84" points="156.67 93.61 147.82 89.37 147.82 87.76 156.67 92 156.67 93.61"/><polygon class="cls-85" points="161.21 95.78 158.03 94.25 158.03 92.64 161.21 94.17 161.21 95.78"/><polygon class="cls-84" points="164.73 97.46 162.57 96.43 162.57 94.82 164.73 95.85 164.73 97.46"/><polygon class="cls-84" points="152.65 95.36 147.82 93.05 147.82 91.44 152.65 93.75 152.65 95.36"/><polygon class="cls-70" points="159.91 98.84 154 96.01 154 94.4 159.91 97.22 159.91 98.84"/><polygon class="cls-84" points="163.43 100.52 161.26 99.48 161.26 97.87 163.43 98.91 163.43 100.52"/><polygon class="cls-84" points="166.78 102.12 164.61 101.09 164.61 99.48 166.78 100.51 166.78 102.12"/><polygon class="cls-84" points="151.31 98.4 147.82 96.73 147.82 95.12 151.31 96.79 151.31 98.4"/><polygon class="cls-84" points="153.86 99.62 152.66 99.05 152.66 97.44 153.86 98.01 153.86 99.62"/><polygon class="cls-84" points="157.38 101.31 155.21 100.27 155.21 98.66 157.38 99.69 157.38 101.31"/><polygon class="cls-85" points="160.7 106.58 147.82 100.42 147.82 98.8 160.7 104.97 160.7 106.58"/><polygon class="cls-84" points="165.24 108.75 162.06 107.23 162.06 105.62 165.24 107.14 165.24 108.75"/><polygon class="cls-84" points="151.31 105.77 147.82 104.1 147.82 102.49 151.31 104.16 151.31 105.77"/><polygon class="cls-70" points="159.5 109.69 152.66 106.42 152.66 104.8 159.5 108.08 159.5 109.69"/><polygon class="cls-84" points="163.02 111.37 160.85 110.34 160.85 108.72 163.02 109.76 163.02 111.37"/><polygon class="cls-85" points="154.96 111.2 147.82 107.78 147.82 106.17 154.96 109.59 154.96 111.2"/><polygon class="cls-85" points="161.48 114.32 156.31 111.85 156.31 110.23 161.48 112.71 161.48 114.32"/><polygon class="cls-84" points="166.32 116.64 162.83 114.97 162.83 113.35 166.32 115.02 166.32 116.64"/><polygon class="cls-84" points="150.23 112.62 147.82 111.46 147.82 109.85 150.23 111 150.23 112.62"/><polygon class="cls-84" points="154.77 114.79 151.59 113.26 151.59 111.65 154.77 113.18 154.77 114.79"/><polygon class="cls-84" points="161.26 117.9 156.13 115.44 156.13 113.83 161.26 116.28 161.26 117.9"/><polygon class="cls-84" points="155.21 118.68 147.82 115.14 147.82 113.53 155.21 117.07 155.21 118.68"/><polygon class="cls-85" points="163.48 122.64 156.56 119.33 156.56 117.72 163.48 121.03 163.48 122.64"/><polygon class="cls-84" points="167 124.33 164.84 123.29 164.84 121.68 167 122.71 167 124.33"/><polygon class="cls-70" points="170.38 125.94 168.21 124.91 168.21 123.29 170.38 124.33 170.38 125.94"/><polygon class="cls-84" points="152.25 120.94 147.82 118.83 147.82 117.22 152.25 119.33 152.25 120.94"/><polygon class="cls-70" points="170.76 100.35 176.9 103.29 176.9 101.68 170.76 98.74 170.76 100.35"/><polygon class="cls-85" points="172.07 104.66 176.9 106.97 176.9 105.36 172.07 103.05 172.07 104.66"/><polygon class="cls-84" points="173.41 108.98 176.9 110.65 176.9 109.04 173.41 107.37 173.41 108.98"/><polygon class="cls-70" points="171.82 111.9 176.9 114.33 176.9 112.72 171.82 110.29 171.82 111.9"/><polygon class="cls-84" points="173.41 116.35 176.9 118.02 176.9 116.41 173.41 114.73 173.41 116.35"/><polygon class="cls-84" points="172.47 119.58 176.9 121.7 176.9 120.09 172.47 117.97 172.47 119.58"/><polygon class="cls-84" points="174.49 124.23 176.9 125.38 176.9 123.77 174.49 122.61 174.49 124.23"/><polygon class="cls-84" points="172.22 126.83 176.9 129.06 176.9 127.45 172.22 125.21 172.22 126.83"/><polygon class="cls-84" points="172.47 130.63 176.9 132.75 176.9 131.13 172.47 129.01 172.47 130.63"/><polygon class="cls-84" points="155.48 122.49 153.6 121.59 153.6 119.98 155.48 120.88 155.48 122.49"/><polygon class="cls-85" points="161.07 125.17 156.84 123.14 156.84 121.53 161.07 123.56 161.07 125.17"/><polygon class="cls-84" points="164.58 137.56 157.43 134.13 157.43 132.52 164.58 135.94 164.58 137.56"/><polygon class="cls-84" points="169.47 139.9 166.66 138.55 166.66 136.94 169.47 138.29 169.47 139.9"/></g><path class="cls-5" d="M192.22,162.48a1.8,1.8,0,0,1-.76-.18l-49.38-23.64a3.06,3.06,0,0,1-1.64-2.56V76.87a1.3,1.3,0,0,1,.68-1.24,1.52,1.52,0,0,1,1.31.07l49.38,23.64a3.05,3.05,0,0,1,1.64,2.56v59.23a1.28,1.28,0,0,1-.68,1.23A1.3,1.3,0,0,1,192.22,162.48Zm-.41-.69a.74.74,0,0,0,.6.06.77.77,0,0,0,.33-.72V101.9a2.52,2.52,0,0,0-1.28-2.05L142.08,76.21a.74.74,0,0,0-.6-.07.78.78,0,0,0-.33.73V136.1a2.52,2.52,0,0,0,1.28,2.05Z" transform="translate(-4.63 -4.26)"/><polygon class="cls-24" points="50.23 177.84 22.21 164.43 21.53 164.76 50.23 178.49 78.92 164.76 78.24 164.43 50.23 177.84"/><polygon class="cls-24" points="176.71 238.32 148.7 224.91 148.01 225.24 176.71 238.98 205.41 225.24 204.73 224.91 176.71 238.32"/></g></g></svg>