<?xml version="1.0" encoding="UTF-8"?>
<svg transform="scale(-1 1)" fill="none" version="1.1" viewBox="0 0 280 305" xmlns="http://www.w3.org/2000/svg">
<g transform="translate(-397.11 -389.04)" opacity=".7">
<path d="m420.29 395.59c35.166 25.822 127.91 93.208 245.7 82.507 1.146-0.135 2.307-0.021 3.405 0.333 1.099 0.353 2.108 0.939 2.96 1.717s1.526 1.731 1.978 2.792c0.451 1.062 0.669 2.208 0.638 3.362v186.63c-0.059 2.471-0.969 4.845-2.574 6.723-1.606 1.878-3.81 3.146-6.24 3.589-35.415 5.962-182.71 3.018-258.69-73.034-0.786-0.788-1.408-1.725-1.83-2.755-0.422-1.031-0.635-2.134-0.628-3.248v-199.74c0-7.911 9.267-13.301 15.286-8.882z" fill="#96bafd"/>
</g>
<path d="m80.406 195.38c-19.624-6.92-35.533-28.437-35.533-48.062 0-19.624 15.909-29.923 35.533-23.003v-22.808c-31.703-11.179-57.404 5.46-57.404 37.163s25.701 66.465 57.404 77.643c30.363 10.707 55.204-4.114 57.25-33.236l-21.856-7.707c-1.545 17.654-16.796 26.568-35.394 20.01z" fill="#fff"/>
<path d="m87.694 96.792v22.808c19.624 6.919 35.533 28.437 35.533 48.061 0 1.026-0.054 2.021-0.139 2.994l21.857 7.707c0.09-1.285 0.152-2.587 0.152-3.926 0-31.703-25.7-66.465-57.403-77.644z" fill="#1c85e8"/>
<path d="m44.873 147.32-21.871-7.712" stroke="#fff" stroke-miterlimit="10" stroke-width="2.4282"/>
<path d="m172.46 150.58 40.584 7.712" stroke="#fff" stroke-linecap="round" stroke-miterlimit="10" stroke-width="10.368"/>
<path d="m172.46 214.17 40.584 7.712" opacity=".4" stroke="#fff" stroke-linecap="round" stroke-miterlimit="10" stroke-width="10.368"/>
<path d="m172.46 183.02 58.306 11.08" stroke="#fff" stroke-linecap="round" stroke-miterlimit="10" stroke-width="10.368"/>
</svg>
